<?xml version="1.0" standalone="no"?>
<!DOCTYPE svg PUBLIC "-//W3C//DTD SVG 20010904//EN"
 "http://www.w3.org/TR/2001/REC-SVG-20010904/DTD/svg10.dtd">
<svg version="1.0" xmlns="http://www.w3.org/2000/svg"
 width="700.000000pt" height="700.000000pt" viewBox="0 0 700.000000 700.000000"
 preserveAspectRatio="xMidYMid meet">
<metadata>
Created by potrace 1.14, written by Peter Selinger 2001-2017
</metadata>
<g transform="translate(0.000000,700.000000) scale(0.100000,-0.100000)"
fill="#000000" stroke="none">
<path d="M998 6990 c-515 -61 -928 -479 -988 -1000 -13 -115 -13 -4865 0
-4980 60 -528 468 -935 1000 -1000 117 -14 4863 -14 4980 0 262 32 494 144
675 325 181 180 292 411 324 675 15 116 15 4862 1 4980 -54 439 -349 809 -754
945 -191 64 40 59 -2691 61 -1364 1 -2510 -2 -2547 -6z m4592 -961 c113 -39
215 -133 266 -244 13 -27 118 -429 233 -893 226 -901 227 -907 196 -1027 -23
-86 -60 -147 -131 -215 -81 -78 -128 -99 -354 -156 -233 -59 -348 -67 -482
-35 -96 23 -199 70 -270 124 l-46 35 -386 -83 c-213 -45 -389 -84 -391 -87 -3
-3 0 -31 6 -64 16 -84 5 -244 -21 -329 -36 -113 -77 -186 -163 -288 l-38 -45
377 -754 c283 -566 377 -764 381 -799 7 -58 -10 -111 -50 -155 -42 -48 -83
-67 -147 -68 -73 0 -132 31 -168 88 -15 24 -191 372 -391 772 l-364 729 -137
0 -138 0 -367 -735 c-202 -404 -378 -751 -391 -771 -67 -98 -205 -113 -294
-33 -49 45 -70 90 -70 153 0 47 30 110 380 811 l380 760 -56 68 c-64 78 -137
217 -155 296 -7 31 -18 56 -25 56 -6 0 -317 -65 -690 -145 -374 -80 -705 -148
-736 -152 -173 -18 -367 92 -442 251 -14 30 -62 200 -107 378 -79 317 -81 325
-77 424 4 91 8 109 40 175 41 88 115 172 189 216 37 21 521 185 1504 508 798
262 1586 521 1751 576 l302 100 21 59 c62 169 239 346 407 410 46 17 355 98
434 113 44 9 163 -4 220 -24z"/>
<path d="M5245 5606 c-88 -23 -175 -50 -193 -59 -52 -28 -112 -94 -140 -155
-46 -102 -43 -127 117 -760 82 -327 152 -584 166 -611 32 -65 113 -135 178
-157 29 -10 79 -17 112 -17 72 1 371 75 393 97 8 8 15 27 14 43 -1 57 -400
1624 -417 1643 -24 27 -45 25 -230 -24z"/>
<path d="M3355 4663 c-627 -206 -1142 -377 -1144 -379 -5 -4 190 -787 198
-796 3 -4 103 14 222 39 l215 46 29 55 c41 79 168 208 254 260 258 153 574
140 814 -35 l48 -35 390 83 c214 46 389 87 389 91 0 7 -222 902 -251 1011 -5
20 -13 37 -17 36 -4 0 -520 -169 -1147 -376z"/>
<path d="M1480 4046 c-312 -103 -336 -113 -349 -140 -12 -26 -6 -54 65 -340
75 -294 80 -311 103 -314 19 -3 698 134 709 143 4 3 -176 725 -186 746 -6 13
-56 -1 -342 -95z"/>
<path d="M3413 3576 c-177 -58 -270 -248 -209 -425 26 -76 111 -161 189 -190
252 -92 498 134 428 395 -23 87 -100 172 -191 211 -50 21 -166 26 -217 9z"/>
</g>
</svg>
