<svg width="258" height="250" viewBox="0 0 258 250" fill="none" xmlns="http://www.w3.org/2000/svg">
<path d="M257.861 62.4241C257.829 87.9441 247.652 112.407 229.564 130.431V130.43L165.396 194.37C163.172 196.588 159.56 196.593 157.477 194.246C141.876 176.666 133.207 153.93 133.235 130.308C133.264 104.788 143.443 80.3247 161.531 62.3005L161.533 62.3025L220.158 3.88413C225.441 -1.38139 234.087 -1.4191 238.567 4.54314C251.041 21.1388 257.886 41.4318 257.861 62.4241Z" fill="url(#paint0_linear_24_9)"/>
<path d="M28.2959 130.821C10.2081 112.797 0.0298408 88.3338 6.64644e-05 62.8138C-0.0246037 41.8215 6.81924 21.5284 19.2924 4.93278C23.7736 -1.02945 32.4195 -0.991739 37.7037 4.27378L96.3279 62.6927L96.3299 62.6907C114.418 80.7152 124.596 105.178 124.626 130.698C124.653 154.32 115.984 177.056 100.384 194.634C98.3004 196.982 94.688 196.976 92.4649 194.762L28.2979 130.819L28.2959 130.821Z" fill="url(#paint1_linear_24_9)"/>
<path d="M227.151 245.236C222.435 251.018 213.814 250.967 208.54 245.687L172.33 209.436C170.108 207.21 170.112 203.606 172.339 201.386L232.482 141.456C234.705 139.24 238.332 139.227 240.291 141.678C250.729 154.721 254.835 172.747 251.733 192.592C248.891 210.757 240.203 229.226 227.151 245.236Z" fill="url(#paint2_linear_24_9)"/>
<path d="M49.3208 246.078C44.0482 251.355 35.4256 251.406 30.7116 245.625C17.6574 229.615 8.97009 211.149 6.1299 192.984C3.02713 173.136 7.13145 155.11 17.5695 142.067C19.5309 139.617 23.1568 139.629 25.3803 141.845L85.5218 201.777C87.7489 203.994 87.7532 207.601 85.5315 209.825L49.3208 246.078Z" fill="url(#paint3_linear_24_9)"/>
<defs>
<linearGradient id="paint0_linear_24_9" x1="128.93" y1="-0.000142228" x2="128.93" y2="198.61" gradientUnits="userSpaceOnUse">
<stop stop-color="#9F87FF"/>
<stop offset="1" stop-color="#8566FF"/>
</linearGradient>
<linearGradient id="paint1_linear_24_9" x1="128.93" y1="-0.000111907" x2="128.93" y2="198.61" gradientUnits="userSpaceOnUse">
<stop stop-color="#9F87FF"/>
<stop offset="1" stop-color="#8566FF"/>
</linearGradient>
<linearGradient id="paint2_linear_24_9" x1="128.93" y1="137.462" x2="128.93" y2="249.802" gradientUnits="userSpaceOnUse">
<stop stop-color="#DE99F6"/>
<stop offset="1" stop-color="#D669FC"/>
</linearGradient>
<linearGradient id="paint3_linear_24_9" x1="128.93" y1="137.462" x2="128.93" y2="249.802" gradientUnits="userSpaceOnUse">
<stop stop-color="#DE99F6"/>
<stop offset="1" stop-color="#D669FC"/>
</linearGradient>
</defs>
</svg>
